<?xml version="1.0" encoding="UTF-8"?>
<svg version="1.1" xmlns="http://www.w3.org/2000/svg" width="100" height="100">
<path d="M0 0 C0.88733826 0.00404846 1.77467651 0.00809692 2.68890381 0.01226807 C4.08903717 0.00701111 4.08903717 0.00701111 5.51745605 0.00164795 C8.61374268 -0.00717989 11.70980222 -0.00131648 14.80609131 0.00543213 C16.95078577 0.00408578 19.09547993 0.00214551 21.24017334 -0.00036621 C25.73938904 -0.0033189 30.23852544 0.00098485 34.73773193 0.01031494 C40.51519075 0.02170952 46.29246377 0.01515083 52.06991577 0.00317001 C56.49987192 -0.00404466 60.92978376 -0.00176246 65.35974121 0.0034256 C67.49047874 0.00476318 69.62122024 0.00311059 71.75195312 -0.00153351 C74.72583732 -0.00659227 77.69941736 0.00110237 80.67327881 0.01226807 C81.56061707 0.0082196 82.44795532 0.00417114 83.36218262 0 C89.45256371 0.04252953 89.45256371 0.04252953 91.68109131 2.27105713 C91.86916719 5.01224935 91.93284921 7.6511686 91.90814209 10.39263916 C91.90838316 11.2453282 91.90862423 12.09801723 91.9088726 12.97654533 C91.9073766 15.74409192 91.89213081 18.51137106 91.87640381 21.27886963 C91.87346426 22.9845161 91.87142328 24.69016436 91.87030029 26.39581299 C91.85980272 32.72925517 91.83188043 39.06265876 91.80609131 45.39605713 C91.76484131 59.54480713 91.72359131 73.69355713 91.68109131 88.27105713 C58.68109131 88.27105713 25.68109131 88.27105713 -8.31890869 88.27105713 C-8.36015869 74.12230713 -8.40140869 59.97355713 -8.44390869 45.39605713 C-8.4621167 40.92446045 -8.48032471 36.45286377 -8.49908447 31.84576416 C-8.50811768 26.39581299 -8.50811768 26.39581299 -8.50979614 23.84646606 C-8.51287231 22.06154383 -8.51991669 20.27662581 -8.53005981 18.49172974 C-8.54463826 15.79195914 -8.54672275 13.09244305 -8.54595947 10.39263916 C-8.55315569 9.59415621 -8.56035191 8.79567326 -8.56776619 7.97299385 C-8.54060156 0.82580347 -7.01648696 0.04899659 0 0 Z M-4.31890869 6.27105713 C-4.31890869 8.25105713 -4.31890869 10.23105713 -4.31890869 12.27105713 C26.04109131 12.27105713 56.40109131 12.27105713 87.68109131 12.27105713 C87.68109131 10.29105713 87.68109131 8.31105713 87.68109131 6.27105713 C85.10543854 3.69540436 83.38052059 4.02674415 79.86987305 4 C79.0573407 4.00404846 78.24480835 4.00809692 77.40765381 4.01226807 C76.55226013 4.00876343 75.69686646 4.00525879 74.81555176 4.00164795 C71.97898316 3.99282236 69.14266258 3.99868268 66.30609131 4.00543213 C64.34075879 4.00408572 62.37542659 4.00214538 60.41009521 3.99963379 C56.28750442 3.9966814 52.16500018 4.00098385 48.04241943 4.01031494 C42.74922801 4.02170953 37.45623939 4.01515067 32.16305542 4.00317001 C28.10368309 3.9959545 24.04435911 3.99823792 19.98498535 4.0034256 C18.03287736 4.00476295 16.08076503 4.0031114 14.12866211 3.99846649 C11.40383216 3.99340633 8.67933395 4.00110425 5.95452881 4.01226807 C4.73573029 4.00619537 4.73573029 4.00619537 3.49230957 4 C-0.88079695 3.86107425 -0.88079695 3.86107425 -4.31890869 6.27105713 Z M-4.31890869 16.27105713 C-4.31890869 38.71105713 -4.31890869 61.15105713 -4.31890869 84.27105713 C26.04109131 84.27105713 56.40109131 84.27105713 87.68109131 84.27105713 C87.68109131 61.83105713 87.68109131 39.39105713 87.68109131 16.27105713 C57.32109131 16.27105713 26.96109131 16.27105713 -4.31890869 16.27105713 Z " fill="#000000" transform="translate(8.31890869140625,5.72894287109375)"/>
<path d="M0 0 C1.32 0.66 2.64 1.32 4 2 C0.60086216 12.30177303 -3.22940658 22.44337188 -7.26867676 32.50991821 C-7.79780688 33.83642537 -8.32003988 35.16570459 -8.83532715 36.49765015 C-9.57018355 38.39143413 -10.33342164 40.27412961 -11.09765625 42.15625 C-11.53601807 43.25775391 -11.97437988 44.35925781 -12.42602539 45.49414062 C-14 48 -14 48 -16.68139648 48.86523438 C-17.44653564 48.90970703 -18.2116748 48.95417969 -19 49 C-20 47 -20 47 -19.21484375 44.47241211 C-18.79332031 43.41803955 -18.37179688 42.36366699 -17.9375 41.27734375 C-17.47335693 40.10606934 -17.00921387 38.93479492 -16.53100586 37.72802734 C-16.02100888 36.46438164 -15.5106673 35.20087496 -15 33.9375 C-14.48980028 32.66117599 -13.98011687 31.38464547 -13.47094727 30.10791016 C-12.45844886 27.5739686 -11.44087984 25.04216021 -10.41845703 22.51220703 C-9.19743049 19.48885283 -7.9856653 16.46203808 -6.77734375 13.43359375 C-6.16506708 11.91365744 -5.55187837 10.39408799 -4.9375 8.875 C-4.66357422 8.19042725 -4.38964844 7.50585449 -4.10742188 6.80053711 C-2.98219762 4.05798194 -2.11941113 2.11941113 0 0 Z " fill="#000000" transform="translate(57,29)"/>
<path d="M0 0 C4.79097173 -0.54135274 7.88577501 1.28102241 11.8125 3.75 C12.40998047 4.09804688 13.00746094 4.44609375 13.62304688 4.8046875 C15.33203125 5.859375 15.33203125 5.859375 18 8 C18 9.32 18 10.64 18 12 C15.94083462 13.65215612 14.07058384 14.93461136 11.8125 16.25 C11.23435547 16.61351563 10.65621094 16.97703125 10.06054688 17.3515625 C6.57968264 19.44401422 4.06711328 20.45956082 0 20 C0.0625 17.75 0.0625 17.75 1 15 C3.65742095 12.9101187 6.53550551 11 10 11 C10 10.34 10 9.68 10 9 C9.29875 8.7525 8.5975 8.505 7.875 8.25 C4.62997541 6.83911974 1.89683263 5.02104602 -1 3 C-0.67 2.01 -0.34 1.02 0 0 Z " fill="#000000" transform="translate(66,42)"/>
<path d="M0 0 C0.51175781 0.40347656 1.02351563 0.80695312 1.55078125 1.22265625 C0.49512592 4.50691728 -1.06582227 5.79417181 -3.94921875 7.47265625 C-7.44921875 9.22265625 -7.44921875 9.22265625 -9.44921875 9.22265625 C-9.44921875 9.88265625 -9.44921875 10.54265625 -9.44921875 11.22265625 C-8.54171875 11.49078125 -7.63421875 11.75890625 -6.69921875 12.03515625 C-3.68748304 13.13559815 -1.70507358 13.96680142 0.55078125 16.22265625 C0.55078125 17.54265625 0.55078125 18.86265625 0.55078125 20.22265625 C-4.32069801 20.80980253 -7.34405283 18.80822841 -11.26171875 16.22265625 C-11.85919922 15.84109375 -12.45667969 15.45953125 -13.07226562 15.06640625 C-14.53771655 14.12851766 -15.99438225 13.17692675 -17.44921875 12.22265625 C-17.375 10 -17.375 10 -16.44921875 7.22265625 C-14.16136799 5.47347151 -12.13481718 4.14341881 -9.63671875 2.78515625 C-9.00701172 2.40939453 -8.37730469 2.03363281 -7.72851562 1.64648438 C-3.06358975 -0.9723355 -3.06358975 -0.9723355 0 0 Z " fill="#000000" transform="translate(33.44921875,41.77734375)"/>
</svg>
